<svg width="42" height="32" viewBox="0 0 42 32" fill="none" xmlns="http://www.w3.org/2000/svg">
<path d="M3.48488 19.1289H3.48578C3.98169 19.1289 4.38372 18.7356 4.38417 18.2509L4.3972 4.39056C4.3981 3.68612 4.67929 3.02475 5.18958 2.52773C5.69852 2.03115 6.37457 1.75781 7.09283 1.75781H7.09688L17.8403 1.76923H17.8412C18.3372 1.76923 18.7392 1.37636 18.7396 0.891209C18.7401 0.406054 18.3381 0.0118652 17.8421 0.0114258L7.09912 0H7.09283C5.89527 0 4.76868 0.455272 3.9206 1.28276C3.07072 2.11157 2.60175 3.21459 2.60041 4.38837L2.58738 18.2491C2.58693 18.7347 2.98851 19.1285 3.48488 19.1289ZM17.7963 30.2237L7.05331 30.2123C6.33324 30.2114 5.6572 29.9363 5.14871 29.4371C4.64021 28.9383 4.36081 28.2756 4.36216 27.5738L4.37519 24.1861C4.37698 23.701 3.9763 23.3054 3.48039 23.3037H3.47679C2.98178 23.3037 2.58019 23.6952 2.5784 24.1791L2.56537 27.569C2.56357 28.7428 3.02894 29.8471 3.87658 30.6781C4.72377 31.51 5.85125 31.9684 7.05106 31.9697L17.7945 31.9811H17.7954C18.2913 31.9811 18.6934 31.5882 18.6938 31.1031C18.6943 30.6179 18.2927 30.2242 17.7963 30.2237ZM22.4069 1.77626L34.0483 1.78769C34.7684 1.78857 35.4444 2.06367 35.9524 2.56288C36.4609 3.06166 36.7403 3.72435 36.7394 4.4288L36.7264 18.2895C36.726 18.7747 37.128 19.1689 37.6239 19.1693H37.6248C38.1207 19.1693 38.5228 18.776 38.5232 18.2913L38.5362 4.43099C38.5394 2.00742 36.527 0.0329592 34.0505 0.0298831L22.4087 0.0184573H22.4078C21.9119 0.0184573 21.5098 0.411766 21.5094 0.896482C21.5089 1.38164 21.9105 1.77582 22.4069 1.77626ZM37.6194 23.3441H37.6158C37.1208 23.3441 36.7192 23.7357 36.7174 24.2195L36.7044 27.6094C36.7022 29.0623 35.4934 30.2422 34.0083 30.2422H34.0047L22.3629 30.2308H22.362C21.8661 30.2308 21.464 30.6241 21.4636 31.1088C21.4631 31.5939 21.8652 31.9881 22.3611 31.9886L34.0025 32H34.0088C36.4825 32 38.4972 30.0326 38.5012 27.6143L38.5142 24.2265C38.516 23.7409 38.1158 23.3459 37.6194 23.3441ZM41.103 20.5162L34.4759 20.5083V5.67288H32.6791V20.5061L31.3316 20.5044V5.67288H27.738V20.5L26.8396 20.4991V5.67288H25.0428V20.4965L24.1444 20.4956V5.67288H20.5508V20.4916L19.6524 20.4903V5.67288H17.8556V20.4881L17.1818 20.4872V5.67288H12.2406V20.4811L11.1176 20.4798V5.67288H9.32086V20.4776L8.19786 20.4763V5.67288H6.85027V20.4749L0.899744 20.4675H0.898396C0.402482 20.4675 0.000449574 20.8603 3.76476e-07 21.3451C-0.000448821 21.8306 0.401134 22.2248 0.897049 22.2253L6.85027 22.2327V26.3271H8.19786V22.2345L9.32086 22.2358V26.3271H11.1176V22.2376L12.2406 22.2389V26.3271H17.1818V22.2451L17.8556 22.2459V26.3271H19.6524V22.2481L20.5508 22.2494V26.3271H24.1444V22.2534L25.0428 22.2543V26.3271H26.8396V22.2569L27.738 22.2578V26.3271H31.3316V22.2622L32.6791 22.2639V26.3271H34.4759V22.2661L41.1003 22.2745H41.1016C41.5975 22.2745 41.9995 21.8816 42 21.3969C42.0005 20.9109 41.5989 20.5167 41.103 20.5162Z" fill="black"/>
</svg>
