<svg width="14" height="12" viewBox="0 0 14 12" fill="none" xmlns="http://www.w3.org/2000/svg">
<path d="M11.6429 0.22168H2.35714C1.86476 0.222237 1.3927 0.425326 1.04454 0.786386C0.696373 1.14745 0.500538 1.63699 0.5 2.14761V9.85131C0.500538 10.3619 0.696373 10.8515 1.04454 11.2125C1.3927 11.5736 1.86476 11.7767 2.35714 11.7772H11.6429C12.1352 11.7767 12.6073 11.5736 12.9555 11.2125C13.3036 10.8515 13.4995 10.3619 13.5 9.85131V2.14761C13.4995 1.63699 13.3036 1.14745 12.9555 0.786386C12.6073 0.425326 12.1352 0.222237 11.6429 0.22168ZM9.32143 2.14761C9.59691 2.14761 9.8662 2.23232 10.0953 2.39104C10.3243 2.54976 10.5028 2.77535 10.6083 3.03928C10.7137 3.30322 10.7413 3.59365 10.6875 3.87385C10.6338 4.15404 10.5011 4.41142 10.3063 4.61343C10.1115 4.81544 9.86335 4.95301 9.59316 5.00874C9.32297 5.06447 9.04292 5.03587 8.78841 4.92654C8.53389 4.81722 8.31636 4.63208 8.16331 4.39454C8.01026 4.157 7.92857 3.87773 7.92857 3.59205C7.92896 3.20908 8.07583 2.84191 8.33695 2.57111C8.59808 2.30031 8.95214 2.148 9.32143 2.14761ZM2.35714 10.8143C2.11087 10.8143 1.87468 10.7128 1.70054 10.5322C1.5264 10.3516 1.42857 10.1067 1.42857 9.85131V7.81615L4.18062 5.27934C4.44615 5.03513 4.79147 4.90508 5.14623 4.91571C5.501 4.92633 5.8385 5.07682 6.09 5.33652L7.97471 7.28682L4.57324 10.8143H2.35714ZM12.5714 9.85131C12.5714 10.1067 12.4736 10.3516 12.2995 10.5322C12.1253 10.7128 11.8891 10.8143 11.6429 10.8143H5.88658L9.40993 7.16043C9.65939 6.94043 9.97595 6.81923 10.3034 6.81835C10.6309 6.81747 10.948 6.93696 11.1986 7.15561L12.5714 8.34186V9.85131Z" fill="white"/>
</svg>
