<svg width="23" height="21" viewBox="0 0 23 21" fill="none" xmlns="http://www.w3.org/2000/svg">
<path d="M11 0.25C16.9583 0.25 21.8333 4.12833 21.8333 8.91667C21.8333 9.545 21.7466 10.1517 21.595 10.7367C20.9558 10.4117 20.2625 10.1733 19.5366 10.065C19.6233 9.69667 19.6666 9.30667 19.6666 8.91667C19.6666 5.33083 15.7883 2.41667 11 2.41667C6.21163 2.41667 2.33329 5.33083 2.33329 8.91667C2.33329 12.5025 6.21163 15.4167 11 15.4167L12.1808 15.3625L12.0833 16.5L12.17 17.5292L11 17.5833C9.71079 17.5833 8.42163 17.3992 7.17579 17.0417C5.19329 18.6667 2.73413 19.6308 0.166626 19.75C2.69079 17.2258 3.14579 15.525 3.14579 14.875C2.24122 14.1624 1.50516 13.2588 0.990175 12.2289C0.475187 11.1989 0.193976 10.0679 0.166626 8.91667C0.166626 4.12833 5.04163 0.25 11 0.25ZM17.5 12.1667H19.6666V15.4167H22.9166V17.5833H19.6666V20.8333H17.5V17.5833H14.25V15.4167H17.5V12.1667Z" fill="white"/>
</svg>
