<svg width="23" height="18" viewBox="0 0 23 18" fill="none" xmlns="http://www.w3.org/2000/svg">
<path d="M21 0.900391C21.3801 0.900391 21.7449 1.05064 22.0137 1.31934C22.2824 1.58806 22.4335 1.95298 22.4336 2.33301V15.667C22.4335 16.047 22.2824 16.4119 22.0137 16.6807C21.7449 16.9494 21.3801 17.0996 21 17.0996H2.33301C1.95298 17.0995 1.58806 16.9494 1.31934 16.6807C1.05061 16.4119 0.900477 16.047 0.900391 15.667V2.33301C0.900477 1.95298 1.05061 1.58806 1.31934 1.31934C1.58806 1.05061 1.95298 0.900477 2.33301 0.900391H21ZM12.5703 11.6641C12.3018 11.931 11.9382 12.0811 11.5596 12.0811C11.1811 12.0809 10.8182 11.9309 10.5498 11.6641L2.43359 3.58789V14.6455L7.0752 9.84375L7.14453 9.77246L7.21582 9.8418L8.17578 10.7676L8.24805 10.8379L8.17871 10.9092L3.67578 15.5664H19.7314L15.083 10.9111L15.0117 10.8398L15.083 10.7695L16.0225 9.8291L16.0938 9.75879L20.9004 14.5654V3.37988L12.5703 11.6641ZM11.5596 10.5049L19.6777 2.43359H3.44922L11.5596 10.5049Z" fill="#0088E7" stroke="#0088E7" stroke-width="0.2"/>
</svg>
