<svg width="17" height="16" viewBox="0 0 17 16" fill="none" xmlns="http://www.w3.org/2000/svg">
<path d="M3.6569 2.15601H13.1249C13.4387 2.1568 13.7394 2.28179 13.9612 2.50367C14.1831 2.72554 14.3081 3.02623 14.3089 3.34001V10.44C14.3081 10.7538 14.1831 11.0545 13.9612 11.2763C13.7394 11.4982 13.4387 11.6232 13.1249 11.624H3.6569C3.3433 11.6232 3.04276 11.4984 2.82091 11.2767C2.59907 11.055 2.47396 10.7546 2.4729 10.441V3.34101C2.47343 3.02706 2.59831 2.72611 2.82021 2.50402C3.04211 2.28193 3.34295 2.1568 3.6569 2.15601V2.15601Z" stroke="currentColor" fill="none" stroke-linecap="round" stroke-linejoin="round"/>
<path d="M14.3089 3.34009L8.3909 7.48209L2.4729 3.34009" stroke="currentColor" fill="none" stroke-linecap="round" stroke-linejoin="round"/>
</svg>
