<svg width="20" height="21" viewBox="0 0 20 21" fill="none" xmlns="http://www.w3.org/2000/svg">
<path d="M12.1083 8.3916L7.8916 12.6083C7.34994 12.0666 7.0166 11.3249 7.0166 10.4999C7.0166 8.84993 8.34993 7.5166 9.99993 7.5166C10.8249 7.5166 11.5666 7.84994 12.1083 8.3916Z" stroke="#0088E7" stroke-width="1.3" stroke-linecap="round" stroke-linejoin="round"/>
<path d="M14.8501 5.3084C13.3918 4.2084 11.7251 3.6084 10.0001 3.6084C7.05845 3.6084 4.31678 5.34173 2.40845 8.34173C1.65845 9.51673 1.65845 11.4917 2.40845 12.6667C3.06678 13.7001 3.83345 14.5917 4.66678 15.3084" stroke="#0088E7" stroke-width="1.3" stroke-linecap="round" stroke-linejoin="round"/>
<path d="M7.0166 16.7751C7.9666 17.1751 8.97493 17.3917 9.99993 17.3917C12.9416 17.3917 15.6833 15.6584 17.5916 12.6584C18.3416 11.4834 18.3416 9.5084 17.5916 8.3334C17.3166 7.90006 17.0166 7.49173 16.7083 7.1084" stroke="#0088E7" stroke-width="1.3" stroke-linecap="round" stroke-linejoin="round"/>
<path d="M12.925 11.0833C12.7083 12.2583 11.75 13.2166 10.575 13.4333" stroke="#0088E7" stroke-width="1.3" stroke-linecap="round" stroke-linejoin="round"/>
<path d="M7.89175 12.6084L1.66675 18.8334" stroke="#0088E7" stroke-width="1.3" stroke-linecap="round" stroke-linejoin="round"/>
<path d="M18.3334 2.16675L12.1084 8.39175" stroke="#0088E7" stroke-width="1.3" stroke-linecap="round" stroke-linejoin="round"/>
</svg>
