<svg width="23" height="23" viewBox="0 0 23 23" fill="none" xmlns="http://www.w3.org/2000/svg">
<path d="M4.94493 13.4829L4.16793 16.3829L1.32893 16.4429C0.470319 14.8437 0.0141453 13.0595 -0.000142004 11.2445C-0.0144293 9.42951 0.4136 7.63834 1.24693 6.02588L3.77393 6.48888L4.88093 9.00089C4.38304 10.4576 4.4053 12.0418 4.94393 13.4839L4.94493 13.4829Z" fill="#FBBB00"/>
<path d="M22.1169 9.07184C22.4955 11.0611 22.3253 13.1158 21.6247 15.0157C20.9241 16.9155 19.7194 18.5888 18.1399 19.8559L14.9568 19.6938L14.5059 16.8818C15.8212 16.1101 16.8313 14.9097 17.3669 13.4818H11.4019V9.06885H22.1179L22.1169 9.07184Z" fill="#518EF8"/>
<path d="M18.1398 19.8549C16.8632 20.8795 15.3768 21.6106 13.7861 21.9965C12.1953 22.3824 10.5391 22.4136 8.93498 22.0879C7.33081 21.7622 5.81795 21.0876 4.50364 20.1118C3.18934 19.1361 2.1058 17.8832 1.32983 16.4419L4.94483 13.4829C5.28401 14.388 5.81683 15.208 6.50601 15.8857C7.1952 16.5633 8.02411 17.0822 8.93477 17.406C9.84543 17.7298 10.8158 17.8508 11.7781 17.7605C12.7404 17.6701 13.6714 17.3706 14.5058 16.8829L18.1398 19.8549Z" fill="#28B446"/>
<path d="M18.276 2.56794L14.662 5.52694C13.8155 4.99973 12.8609 4.67019 11.8694 4.5628C10.8779 4.45542 9.87496 4.57297 8.93515 4.90671C7.99534 5.24045 7.14286 5.78179 6.44114 6.49046C5.73942 7.19912 5.20651 8.05689 4.88205 8.99994L1.24805 6.02494C2.01476 4.54521 3.1032 3.25603 4.43343 2.25208C5.76366 1.24812 7.30188 0.554898 8.93513 0.223319C10.5684 -0.10826 12.2551 -0.0697712 13.8716 0.335958C15.488 0.741688 16.993 1.50435 18.276 2.56794Z" fill="#F14336"/>
</svg>
