<svg width="10" height="13" viewBox="0 0 10 13" fill="none" xmlns="http://www.w3.org/2000/svg">
<path opacity="0.5" fill-rule="evenodd" clip-rule="evenodd" d="M4.53875 12.8233C4.53875 12.8233 0 8.92801 0 5.09517C0 3.74384 0.526784 2.44787 1.46447 1.49234C2.40215 0.536811 3.67392 0 5 0C6.32608 0 7.59785 0.536811 8.53553 1.49234C9.47322 2.44787 10 3.74384 10 5.09517C10 8.92801 5.46125 12.8233 5.46125 12.8233C5.20875 13.0602 4.79313 13.0576 4.53875 12.8233ZM5 7.3243C5.28727 7.3243 5.57172 7.26664 5.83712 7.15462C6.10252 7.04259 6.34367 6.8784 6.5468 6.6714C6.74992 6.46441 6.91105 6.21867 7.02099 5.94822C7.13092 5.67777 7.1875 5.3879 7.1875 5.09517C7.1875 4.80243 7.13092 4.51256 7.02099 4.24211C6.91105 3.97166 6.74992 3.72592 6.5468 3.51893C6.34367 3.31194 6.10252 3.14774 5.83712 3.03571C5.57172 2.92369 5.28727 2.86603 5 2.86603C4.41984 2.86603 3.86344 3.10089 3.4532 3.51893C3.04297 3.93697 2.8125 4.50396 2.8125 5.09517C2.8125 5.68637 3.04297 6.25336 3.4532 6.6714C3.86344 7.08945 4.41984 7.3243 5 7.3243Z" fill="#021639"/>
</svg>
