<svg width="10" height="12" viewBox="0 0 10 12" fill="none" xmlns="http://www.w3.org/2000/svg">
<path d="M4.07136 5.64286H8.71422M4.07136 8.42857H8.71422M4.07136 11.2143H8.71422M1.28564 5.64286H2.21422M1.28564 8.42857H2.21422M1.28564 11.2143H2.21422M3.14279 1H6.85707C7.10335 1 7.33953 1.09783 7.51367 1.27197C7.68781 1.44611 7.78564 1.6823 7.78564 1.92857C7.78564 2.17484 7.68781 2.41103 7.51367 2.58517C7.33953 2.75931 7.10335 2.85714 6.85707 2.85714H3.14279C2.89651 2.85714 2.66033 2.75931 2.48619 2.58517C2.31205 2.41103 2.21422 2.17484 2.21422 1.92857C2.21422 1.6823 2.31205 1.44611 2.48619 1.27197C2.66033 1.09783 2.89651 1 3.14279 1Z" stroke="currentColor" stroke-linecap="round" stroke-linejoin="round"/>
</svg>
