<svg width="17" height="16" viewBox="0 0 17 16" fill="none" xmlns="http://www.w3.org/2000/svg">
<path d="M11.6047 10.566L11.932 10.2232L11.1718 9.41798L10.8459 9.7608L11.6047 10.566ZM13.0297 10.0794L14.4015 10.8657L14.9148 9.86826L13.5437 9.08273L13.0297 10.0794ZM14.665 12.4277L13.6456 13.497L14.4044 14.3015L15.4238 13.2329L14.665 12.4277ZM13.0239 13.8406C11.983 13.9435 9.29093 13.8519 6.37489 10.7961L5.61538 11.6005C8.79703 14.9356 11.8258 15.0991 13.1244 14.9712L13.0239 13.8406ZM6.37489 10.7961C3.59597 7.88248 3.13509 5.4328 3.07766 4.36953L2.00228 4.43385C2.07407 5.77183 2.64478 8.48715 5.61538 11.6005L6.37489 10.7961ZM7.36198 6.11919L7.56801 5.90276L6.80993 5.0983L6.6039 5.31398L7.36198 6.11919ZM7.73169 3.15187L6.82716 1.87746L5.96498 2.55856L6.86951 3.83221L7.73169 3.15187ZM3.78262 1.59972L2.65555 2.7803L3.41507 3.58551L4.54142 2.40493L3.78262 1.59972ZM6.98294 5.71659C6.60246 5.31398 6.60246 5.31398 6.60246 5.3155H6.60103L6.59887 5.31852C6.56476 5.35478 6.53421 5.39459 6.5077 5.43734C6.46894 5.49788 6.42658 5.57734 6.39069 5.67799C6.3033 5.93781 6.28153 6.21713 6.32751 6.4885C6.42371 7.14311 6.85157 8.00811 7.94705 9.15689L8.70657 8.35168C7.68072 7.27706 7.43664 6.62321 7.39141 6.31444C7.36988 6.16763 7.39213 6.09498 7.39859 6.07833C7.4029 6.06824 7.4029 6.06672 7.39859 6.07379C7.39219 6.08423 7.38499 6.0941 7.37706 6.1033L7.36988 6.11087L7.3627 6.11768L6.98294 5.71659ZM7.94705 9.15689C9.04326 10.3057 9.8681 10.7537 10.4898 10.8536C10.8078 10.905 11.0641 10.8642 11.2586 10.7877C11.3676 10.7457 11.4694 10.6854 11.5602 10.6091L11.596 10.5751L11.6011 10.5706L11.6032 10.5683L11.6039 10.5668C11.6039 10.5668 11.6047 10.566 11.2249 10.1634C10.8444 9.7608 10.8466 9.76005 10.8466 9.76005L10.848 9.75853L10.8494 9.75702L10.8538 9.75323L10.8609 9.74567L10.8882 9.72296C10.8949 9.71842 10.8932 9.71893 10.8832 9.72448C10.8652 9.73129 10.7949 9.75475 10.6535 9.73204C10.3563 9.68361 9.73171 9.42631 8.70657 8.35168L7.94705 9.15689ZM6.82716 1.8767C6.09492 0.847488 4.65629 0.684024 3.78262 1.59972L4.54142 2.40493C4.92334 2.0046 5.60102 2.04622 5.96498 2.55856L6.82716 1.8767ZM3.07838 4.37028C3.06402 4.10844 3.17817 3.83449 3.41507 3.58626L2.65483 2.78105C2.26933 3.18517 1.96567 3.75729 2.00228 4.43385L3.07838 4.37028ZM13.6456 13.497C13.4489 13.7044 13.2364 13.8209 13.0246 13.8413L13.1244 14.9712C13.6521 14.919 14.0835 14.639 14.4051 14.3022L13.6456 13.497ZM7.56801 5.90276C8.27513 5.16187 8.32753 3.99114 7.73241 3.15263L6.87023 3.83297C7.15954 4.24087 7.11647 4.77591 6.80921 5.09906L7.56801 5.90276ZM14.4022 10.8665C14.9888 11.2025 15.0799 11.994 14.6657 12.4284L15.4252 13.2329C16.3872 12.2241 16.0907 10.5418 14.9155 9.86902L14.4022 10.8665ZM11.932 10.2239C12.2077 9.93486 12.6513 9.86372 13.0304 10.0802L13.5444 9.08349C12.7662 8.63699 11.8014 8.76034 11.1725 9.41874L11.932 10.2239Z" fill="currentColor"/>
</svg>
