<svg width="38" height="38" viewBox="0 0 38 38" fill="none" xmlns="http://www.w3.org/2000/svg">
<circle cx="19" cy="19" r="19" fill="#0088E7"/>
<path fill-rule="evenodd" clip-rule="evenodd" d="M23.1479 9.83333H23.2102C24.0206 9.83333 24.6742 9.83333 25.1994 9.88375C25.7421 9.93508 26.2151 10.0442 26.6395 10.3045C27.0703 10.5685 27.4315 10.9297 27.6955 11.3605C27.9558 11.7849 28.0649 12.2579 28.1172 12.7997C28.1667 13.3258 28.1667 13.9803 28.1667 14.7897V14.8539C28.1667 15.3856 28.1667 15.8292 28.1327 16.1904C28.0961 16.5681 28.0191 16.9192 27.8211 17.2418C27.6286 17.5572 27.3627 17.8221 27.0474 18.0155C26.7247 18.2135 26.3727 18.2905 25.996 18.3272C25.6348 18.3611 25.1902 18.3611 24.6577 18.3611H23.6457C22.8793 18.3611 22.2404 18.3611 21.7335 18.2932C21.1982 18.2208 20.7151 18.0632 20.3264 17.6745C19.9377 17.2858 19.7801 16.8037 19.7077 16.2674C19.6398 15.7605 19.6398 15.1216 19.6398 14.3552V13.3414C19.6398 12.8097 19.6398 12.3652 19.6737 12.004C19.7104 11.6272 19.7874 11.2752 19.9854 10.9535C20.1779 10.6372 20.4437 10.3723 20.7591 10.1789C21.0817 9.98092 21.4328 9.90392 21.8105 9.86725C22.1707 9.83333 22.6153 9.83333 23.1479 9.83333ZM23.9032 15.1628C23.4632 15.1628 23.2432 15.1628 23.0883 15.0528C23.0342 15.0134 22.9866 14.9658 22.9472 14.9117C22.8372 14.7558 22.8372 14.5358 22.8372 14.0967C22.8372 13.6577 22.8372 13.4377 22.9472 13.2827C22.9865 13.2283 23.0341 13.1803 23.0883 13.1407C23.2442 13.0307 23.4642 13.0307 23.9032 13.0307C24.3423 13.0307 24.5623 13.0307 24.7172 13.1407C24.7722 13.1804 24.8196 13.2277 24.8593 13.2827C24.9693 13.4377 24.9693 13.6577 24.9693 14.0967C24.9693 14.5358 24.9693 14.7567 24.8593 14.9117C24.8197 14.9659 24.7717 15.0135 24.7172 15.0528C24.5623 15.1628 24.3423 15.1628 23.9032 15.1628ZM17.24 10.1789C16.9192 9.98092 16.5672 9.90392 16.1895 9.86725C15.8283 9.83333 15.3847 9.83333 14.8521 9.83333H14.7897C13.9794 9.83333 13.3258 9.83333 12.8006 9.88375C12.2579 9.93508 11.7849 10.0442 11.3605 10.3045C10.9297 10.5685 10.5685 10.9297 10.3045 11.3605C10.0442 11.7849 9.93508 12.2579 9.88283 12.7997C9.83333 13.3258 9.83333 13.9803 9.83333 14.7897V14.8539C9.83333 15.3856 9.83333 15.8292 9.86725 16.1904C9.90392 16.5681 9.98092 16.9192 10.1789 17.2418C10.3714 17.5572 10.6372 17.8221 10.9535 18.0155C11.2752 18.2135 11.6272 18.2905 12.004 18.3272C12.3652 18.3611 12.8088 18.3611 13.3423 18.3611H14.3543C15.1207 18.3611 15.7596 18.3611 16.2665 18.2932C16.8018 18.2208 17.2849 18.0632 17.6736 17.6745C18.0622 17.2858 18.2199 16.8037 18.2923 16.2674C18.3602 15.7605 18.3602 15.1216 18.3602 14.3552V13.3414C18.3602 12.8097 18.3602 12.3652 18.3262 12.004C18.2896 11.6272 18.2126 11.2752 18.0146 10.9535C17.8214 10.6379 17.5563 10.3725 17.2409 10.1789M13.2837 15.0528C13.4386 15.1628 13.6586 15.1628 14.0977 15.1628C14.5367 15.1628 14.7577 15.1628 14.9126 15.0528C14.9667 15.0134 15.0143 14.9658 15.0537 14.9117C15.1637 14.7558 15.1637 14.5358 15.1637 14.0967C15.1637 13.6577 15.1637 13.4377 15.0537 13.2827C15.0144 13.2283 14.9668 13.1803 14.9126 13.1407C14.7567 13.0307 14.5367 13.0307 14.0977 13.0307C13.6586 13.0307 13.4386 13.0307 13.2837 13.1407C13.2291 13.1803 13.1812 13.2282 13.1416 13.2827C13.0316 13.4377 13.0316 13.6577 13.0316 14.0967C13.0316 14.5358 13.0316 14.7567 13.1416 14.9117C13.1813 14.9659 13.2292 15.0135 13.2837 15.0528ZM16.2665 19.7077C16.8018 19.7801 17.2849 19.9377 17.6736 20.3264C18.0622 20.7151 18.2199 21.1972 18.2923 21.7335C18.3602 22.2404 18.3602 22.8793 18.3602 23.6457V24.6586C18.3602 25.1902 18.3602 25.6348 18.3262 25.996C18.2896 26.3727 18.2126 26.7247 18.0146 27.0465C17.8221 27.3627 17.5562 27.6277 17.2409 27.8211C16.9182 28.0191 16.5672 28.0961 16.1895 28.1327C15.8283 28.1667 15.3847 28.1667 14.8521 28.1667H14.7897C13.9794 28.1667 13.3258 28.1667 12.8006 28.1162C12.2579 28.0649 11.7849 27.9558 11.3605 27.6955C10.9303 27.4315 10.5685 27.0697 10.3045 26.6395C10.0442 26.2151 9.93508 25.7421 9.88283 25.2003C9.83333 24.6742 9.83333 24.0206 9.83333 23.2112V23.147C9.83333 22.6153 9.83333 22.1707 9.86725 21.8105C9.90392 21.4328 9.98092 21.0817 10.1789 20.7591C10.3714 20.4437 10.6372 20.1788 10.9535 19.9854C11.2752 19.7874 11.6272 19.7104 12.004 19.6737C12.3652 19.6398 12.8088 19.6398 13.3423 19.6398H14.3543C15.1207 19.6398 15.7596 19.6398 16.2665 19.7077ZM14.0967 24.9693C13.6567 24.9693 13.4377 24.9693 13.2827 24.8593C13.2282 24.8197 13.1803 24.7718 13.1407 24.7172C13.0307 24.5623 13.0307 24.3423 13.0307 23.9032C13.0307 23.4642 13.0307 23.2432 13.1407 23.0883C13.1803 23.0341 13.2283 22.9865 13.2827 22.9472C13.4377 22.8372 13.6577 22.8372 14.0967 22.8372C14.5358 22.8372 14.7567 22.8372 14.9117 22.9472C14.9667 22.9869 15.0137 23.0339 15.0528 23.0883C15.1628 23.2442 15.1628 23.4642 15.1628 23.9032C15.1628 24.3423 15.1628 24.5623 15.0528 24.7172C15.0135 24.7717 14.9659 24.8197 14.9117 24.8593C14.7558 24.9693 14.5358 24.9693 14.0967 24.9693Z" fill="white"/>
<path d="M19.6398 23.2316V23.2636H20.9186C20.9186 22.6513 20.9186 22.2406 20.9516 21.9271C20.9818 21.6246 21.0368 21.4853 21.0983 21.3927C21.1765 21.2769 21.276 21.177 21.3916 21.0985C21.4851 21.0371 21.6244 20.9821 21.9269 20.9518C22.2404 20.9197 22.6511 20.9188 23.2634 20.9188H24.9684V19.6401H23.2313C22.6603 19.6401 22.1836 19.6401 21.7977 19.6786C21.3943 19.7198 21.0194 19.8096 20.6821 20.0351C20.4254 20.2056 20.2054 20.4256 20.0349 20.6823C19.8094 21.0196 19.7196 21.3946 19.6783 21.7979C19.6398 22.1829 19.6398 22.6596 19.6398 23.2316ZM28.1667 24.9906V24.9696H26.8879C26.8879 25.3756 26.8879 25.6479 26.8733 25.8587C26.8586 26.0641 26.8338 26.164 26.8063 26.23C26.7529 26.3595 26.6744 26.4773 26.5752 26.5764C26.4761 26.6755 26.3584 26.754 26.2288 26.8075C26.1647 26.8341 26.0638 26.8588 25.8585 26.8735C25.6477 26.8872 25.3754 26.8881 24.9693 26.8881H23.2643V28.1669H24.9904C25.3699 28.1669 25.6862 28.1669 25.9456 28.1486C26.2106 28.1385 26.4721 28.0843 26.7193 27.9881C27.2935 27.75 27.7498 27.2937 27.9879 26.7195C28.0906 26.472 28.1309 26.2162 28.1493 25.9458C28.1667 25.6864 28.1667 25.3701 28.1667 24.9906ZM20.9186 27.5271C20.9219 27.6131 20.9077 27.6988 20.8771 27.7792C20.8464 27.8597 20.7998 27.9331 20.7401 27.9951C20.6804 28.0571 20.6089 28.1064 20.5297 28.1401C20.4505 28.1737 20.3653 28.1911 20.2792 28.1911C20.1932 28.1911 20.108 28.1737 20.0288 28.1401C19.9496 28.1064 19.878 28.0571 19.8183 27.9951C19.7586 27.9331 19.712 27.8597 19.6814 27.7792C19.6507 27.6988 19.6366 27.6131 19.6398 27.5271V24.9696H20.9186V27.5271ZM27.5268 19.6401C27.3576 19.6408 27.1955 19.7083 27.0759 19.828C26.9562 19.9477 26.8887 20.1097 26.8879 20.279V23.2636H28.1667V20.279C28.166 20.1096 28.0983 19.9474 27.9784 19.8277C27.8586 19.708 27.6962 19.6405 27.5268 19.6401ZM22.7363 23.2325C22.6667 23.4011 22.6667 23.6147 22.6667 24.0419C22.6667 24.4691 22.6667 24.6826 22.7363 24.8513C22.8296 25.0755 23.0079 25.2535 23.2323 25.3463C23.4009 25.4169 23.6145 25.4169 24.0417 25.4169C24.4688 25.4169 24.6824 25.4169 24.8511 25.3472C25.0753 25.254 25.2533 25.0756 25.3461 24.8513C25.4167 24.6826 25.4167 24.4691 25.4167 24.0419C25.4167 23.6147 25.4167 23.4011 25.347 23.2325C25.2538 23.0083 25.0754 22.8303 24.8511 22.7375C24.6824 22.6669 24.4688 22.6669 24.0417 22.6669C23.6145 22.6669 23.4009 22.6669 23.2323 22.7366C23.0081 22.8298 22.8292 23.0081 22.7363 23.2325Z" fill="white"/>
</svg>
