<svg width="45" height="39" viewBox="0 0 45 39" fill="none" xmlns="http://www.w3.org/2000/svg">
<path d="M4.16602 11.1278C4.93346 11.1278 5.55837 10.5029 5.55837 9.73543V2.78468H12.5091C13.2765 2.78468 13.9015 2.15977 13.9015 1.39234C13.9015 0.624909 13.2765 0 12.5091 0H4.16602C3.39859 0 2.77368 0.624909 2.77368 1.39234V9.73543C2.77368 10.5138 3.39859 11.1278 4.16602 11.1278Z" fill="black"/>
<path d="M31.98 2.78468H38.9307V9.73543C38.9307 10.5029 39.5556 11.1278 40.3231 11.1278C41.0905 11.1278 41.7154 10.5029 41.7154 9.73543V1.39234C41.7154 0.624909 41.0905 0 40.3231 0H31.98C31.2126 0 30.5876 0.624909 30.5876 1.39234C30.5876 2.15977 31.2126 2.78468 31.98 2.78468Z" fill="black"/>
<path d="M40.3231 27.8145C39.5556 27.8145 38.9307 28.4394 38.9307 29.2068V36.1575H31.98C31.2126 36.1575 30.5876 36.7825 30.5876 37.5499C30.5876 38.3173 31.2126 38.9422 31.98 38.9422H40.3231C41.0905 38.9422 41.7154 38.3173 41.7154 37.5499V29.2068C41.7154 28.4394 41.0905 27.8145 40.3231 27.8145Z" fill="black"/>
<path d="M12.5091 36.1683H5.55837V29.2175C5.55837 28.4501 4.93346 27.8252 4.16602 27.8252C3.39859 27.8252 2.77368 28.4501 2.77368 29.2175V37.5606C2.77368 38.3281 3.39859 38.953 4.16602 38.953H12.5091C13.2765 38.953 13.9015 38.3281 13.9015 37.5606C13.9015 36.7932 13.2765 36.1683 12.5091 36.1683Z" fill="black"/>
<path d="M43.1078 18.0894H36.157V6.96168C36.157 6.19424 35.5321 5.56934 34.7647 5.56934H9.73543C8.968 5.56934 8.34309 6.19424 8.34309 6.96168V18.0894H1.39234C0.624909 18.0894 0 18.7144 0 19.4818C0 20.2492 0.624909 20.8741 1.39234 20.8741H43.1078C43.8752 20.8741 44.5001 20.2492 44.5001 19.4818C44.5001 18.7034 43.8752 18.0894 43.1078 18.0894Z" fill="black"/>
<path d="M8.34314 23.6475V31.9905C8.34314 32.758 8.96805 33.3829 9.73548 33.3829H34.7647C35.5322 33.3829 36.1571 32.758 36.1571 31.9905V23.6475H8.34314Z" fill="black"/>
</svg>
