<svg width="17" height="17" viewBox="0 0 17 17" fill="none" xmlns="http://www.w3.org/2000/svg">
<path d="M11.6047 11.066L11.932 10.7232L11.1718 9.91798L10.8459 10.2608L11.6047 11.066ZM13.0297 10.5794L14.4015 11.3657L14.9148 10.3683L13.5437 9.58273L13.0297 10.5794ZM14.665 12.9277L13.6456 13.997L14.4044 14.8015L15.4238 13.7329L14.665 12.9277ZM13.0239 14.3406C11.983 14.4435 9.29093 14.3519 6.37489 11.2961L5.61538 12.1005C8.79703 15.4356 11.8258 15.5991 13.1244 15.4712L13.0239 14.3406ZM6.37489 11.2961C3.59597 8.38248 3.13509 5.9328 3.07766 4.86953L2.00228 4.93385C2.07407 6.27183 2.64478 8.98715 5.61538 12.1005L6.37489 11.2961ZM7.36198 6.61919L7.56801 6.40276L6.80993 5.5983L6.6039 5.81398L7.36198 6.61919ZM7.73169 3.65187L6.82716 2.37746L5.96498 3.05856L6.86951 4.33221L7.73169 3.65187ZM3.78262 2.09972L2.65555 3.2803L3.41507 4.08551L4.54142 2.90493L3.78262 2.09972ZM6.98294 6.21659C6.60246 5.81398 6.60246 5.81398 6.60246 5.8155H6.60103L6.59887 5.81852C6.56476 5.85478 6.53421 5.89459 6.5077 5.93734C6.46894 5.99788 6.42658 6.07734 6.39069 6.17799C6.3033 6.43781 6.28153 6.71713 6.32751 6.9885C6.42371 7.64311 6.85157 8.50811 7.94705 9.65689L8.70657 8.85168C7.68072 7.77706 7.43664 7.12321 7.39141 6.81444C7.36988 6.66763 7.39213 6.59498 7.39859 6.57833C7.4029 6.56824 7.4029 6.56672 7.39859 6.57379C7.39219 6.58423 7.38499 6.5941 7.37706 6.6033L7.36988 6.61087L7.3627 6.61768L6.98294 6.21659ZM7.94705 9.65689C9.04326 10.8057 9.8681 11.2537 10.4898 11.3536C10.8078 11.405 11.0641 11.3642 11.2586 11.2877C11.3676 11.2457 11.4694 11.1854 11.5602 11.1091L11.596 11.0751L11.6011 11.0706L11.6032 11.0683L11.6039 11.0668C11.6039 11.0668 11.6047 11.066 11.2249 10.6634C10.8444 10.2608 10.8466 10.26 10.8466 10.26L10.848 10.2585L10.8494 10.257L10.8538 10.2532L10.8609 10.2457L10.8882 10.223C10.8949 10.2184 10.8932 10.2189 10.8832 10.2245C10.8652 10.2313 10.7949 10.2547 10.6535 10.232C10.3563 10.1836 9.73171 9.92631 8.70657 8.85168L7.94705 9.65689ZM6.82716 2.3767C6.09492 1.34749 4.65629 1.18402 3.78262 2.09972L4.54142 2.90493C4.92334 2.5046 5.60102 2.54622 5.96498 3.05856L6.82716 2.3767ZM3.07838 4.87028C3.06402 4.60844 3.17817 4.33449 3.41507 4.08626L2.65483 3.28105C2.26933 3.68517 1.96567 4.25729 2.00228 4.93385L3.07838 4.87028ZM13.6456 13.997C13.4489 14.2044 13.2364 14.3209 13.0246 14.3413L13.1244 15.4712C13.6521 15.419 14.0835 15.139 14.4051 14.8022L13.6456 13.997ZM7.56801 6.40276C8.27513 5.66187 8.32753 4.49114 7.73241 3.65263L6.87023 4.33297C7.15954 4.74087 7.11647 5.27591 6.80921 5.59906L7.56801 6.40276ZM14.4022 11.3665C14.9888 11.7025 15.0799 12.494 14.6657 12.9284L15.4252 13.7329C16.3872 12.7241 16.0907 11.0418 14.9155 10.369L14.4022 11.3665ZM11.932 10.7239C12.2077 10.4349 12.6513 10.3637 13.0304 10.5802L13.5444 9.58349C12.7662 9.13699 11.8014 9.26034 11.1725 9.91874L11.932 10.7239Z" fill="#475467"/>
</svg>
