<svg width="11" height="12" viewBox="0 0 11 12" fill="none" xmlns="http://www.w3.org/2000/svg">
<path d="M8.50691 8.68003C7.87396 9.31093 7.0684 9.74033 6.19177 9.91409C5.31515 10.0878 4.4067 9.99819 3.58095 9.65643C2.75521 9.31466 2.04912 8.73607 1.55171 7.99361C1.0543 7.25115 0.787829 6.37805 0.785889 5.48438" stroke="white" stroke-miterlimit="10" stroke-linecap="round"/>
<path d="M8.14232 10.999L8.59205 9.17633C8.61276 9.0969 8.61715 9.01409 8.60494 8.93292C8.59274 8.85174 8.5642 8.77389 8.52105 8.70406C8.4779 8.63423 8.42104 8.57388 8.35389 8.52665C8.28675 8.47943 8.21073 8.44631 8.13043 8.42931L6.30774 7.97363" stroke="white" stroke-linecap="round" stroke-linejoin="round"/>
<path d="M1.99451 3.32098C2.62743 2.68989 3.43304 2.26033 4.30975 2.08646C5.18647 1.91259 6.09504 2.0022 6.9209 2.34399C7.74676 2.68579 8.45293 3.26445 8.95036 4.00703C9.4478 4.7496 9.71423 5.62284 9.71607 6.51663" stroke="white" stroke-miterlimit="10" stroke-linecap="round"/>
<path d="M2.35886 1L1.90914 2.82269C1.88851 2.90215 1.8842 2.98497 1.89647 3.06615C1.90874 3.14733 1.93734 3.22517 1.98053 3.29499C2.02373 3.36481 2.08062 3.42515 2.14778 3.47236C2.21495 3.51958 2.29098 3.5527 2.3713 3.56971L4.19344 4.02538" stroke="white" stroke-linecap="round" stroke-linejoin="round"/>
</svg>
