<svg width="13" height="14" viewBox="0 0 13 14" fill="none" xmlns="http://www.w3.org/2000/svg">
<path fill-rule="evenodd" clip-rule="evenodd" d="M10.8333 0.777778C10.8333 0.571498 10.7572 0.373667 10.6218 0.227806C10.4864 0.0819442 10.3027 0 10.1111 0C9.91957 0 9.73586 0.0819442 9.60042 0.227806C9.46498 0.373667 9.38889 0.571498 9.38889 0.777778V1.55556H0.722222C0.530677 1.55556 0.346977 1.6375 0.211534 1.78336C0.076091 1.92922 0 2.12705 0 2.33333C0 2.53961 0.076091 2.73744 0.211534 2.88331C0.346977 3.02917 0.530677 3.11111 0.722222 3.11111H9.38889V3.88889C9.38889 4.09517 9.46498 4.293 9.60042 4.43886C9.73586 4.58472 9.91957 4.66667 10.1111 4.66667C10.3027 4.66667 10.4864 4.58472 10.6218 4.43886C10.7572 4.293 10.8333 4.09517 10.8333 3.88889V3.11111H12.2778C12.4693 3.11111 12.653 3.02917 12.7885 2.88331C12.9239 2.73744 13 2.53961 13 2.33333C13 2.12705 12.9239 1.92922 12.7885 1.78336C12.653 1.6375 12.4693 1.55556 12.2778 1.55556H10.8333V0.777778ZM0.722222 6.22222C0.530677 6.22222 0.346977 6.30417 0.211534 6.45003C0.076091 6.59589 0 6.79372 0 7C0 7.20628 0.076091 7.40411 0.211534 7.54997C0.346977 7.69583 0.530677 7.77778 0.722222 7.77778H2.16667V8.55556C2.16667 8.76184 2.24276 8.95967 2.3782 9.10553C2.51364 9.25139 2.69734 9.33333 2.88889 9.33333C3.08043 9.33333 3.26413 9.25139 3.39958 9.10553C3.53502 8.95967 3.61111 8.76184 3.61111 8.55556V7.77778H12.2778C12.4693 7.77778 12.653 7.69583 12.7885 7.54997C12.9239 7.40411 13 7.20628 13 7C13 6.79372 12.9239 6.59589 12.7885 6.45003C12.653 6.30417 12.4693 6.22222 12.2778 6.22222H3.61111V5.44444C3.61111 5.23816 3.53502 5.04033 3.39958 4.89447C3.26413 4.74861 3.08043 4.66667 2.88889 4.66667C2.69734 4.66667 2.51364 4.74861 2.3782 4.89447C2.24276 5.04033 2.16667 5.23816 2.16667 5.44444V6.22222H0.722222ZM0 11.6667C0 11.4604 0.076091 11.2626 0.211534 11.1167C0.346977 10.9708 0.530677 10.8889 0.722222 10.8889H9.38889V10.1111C9.38889 9.90483 9.46498 9.707 9.60042 9.56114C9.73586 9.41528 9.91957 9.33333 10.1111 9.33333C10.3027 9.33333 10.4864 9.41528 10.6218 9.56114C10.7572 9.707 10.8333 9.90483 10.8333 10.1111V10.8889H12.2778C12.4693 10.8889 12.653 10.9708 12.7885 11.1167C12.9239 11.2626 13 11.4604 13 11.6667C13 11.8729 12.9239 12.0708 12.7885 12.2166C12.653 12.3625 12.4693 12.4444 12.2778 12.4444H10.8333V13.2222C10.8333 13.4285 10.7572 13.6263 10.6218 13.7722C10.4864 13.9181 10.3027 14 10.1111 14C9.91957 14 9.73586 13.9181 9.60042 13.7722C9.46498 13.6263 9.38889 13.4285 9.38889 13.2222V12.4444H0.722222C0.530677 12.4444 0.346977 12.3625 0.211534 12.2166C0.076091 12.0708 0 11.8729 0 11.6667Z" fill="#021639"/>
</svg>
