<svg width="24" height="24" viewBox="0 0 24 24" fill="none" xmlns="http://www.w3.org/2000/svg">
<path d="M6.54419 1.66398C6.49194 1.61154 6.42984 1.56993 6.36147 1.54154C6.29309 1.51315 6.21979 1.49854 6.14576 1.49854C6.07172 1.49854 5.99842 1.51315 5.93005 1.54154C5.86167 1.56993 5.79958 1.61154 5.74732 1.66398L2.76232 4.63163L1.69826 3.59476C1.646 3.54232 1.5839 3.50071 1.51553 3.47232C1.44716 3.44393 1.37385 3.42932 1.29982 3.42932C1.22579 3.42932 1.15248 3.44393 1.08411 3.47232C1.01574 3.50071 0.953639 3.54232 0.901381 3.59476L0.165444 4.33164C0.113004 4.38389 0.0713953 4.44599 0.0430048 4.51436C0.0146143 4.58273 0 4.65604 0 4.73007C0 4.80411 0.0146143 4.87741 0.0430048 4.94578C0.0713953 5.01416 0.113004 5.07625 0.165444 5.12851L2.39622 7.35038C2.50757 7.45623 2.65533 7.51525 2.80896 7.51525C2.96259 7.51525 3.11034 7.45623 3.22169 7.35038L3.95247 6.6182L7.33685 3.23429C7.4423 3.12876 7.50188 2.9859 7.50267 2.83672C7.50346 2.68754 7.44539 2.54406 7.34107 2.43742L6.54419 1.66398ZM6.54419 9.12601C6.49194 9.07357 6.42984 9.03196 6.36147 9.00357C6.29309 8.97518 6.21979 8.96057 6.14576 8.96057C6.07172 8.96057 5.99842 8.97518 5.93005 9.00357C5.86167 9.03196 5.79958 9.07357 5.74732 9.12601L2.76232 12.1129L1.69826 11.0769C1.646 11.0245 1.5839 10.9829 1.51553 10.9545C1.44716 10.9261 1.37385 10.9115 1.29982 10.9115C1.22579 10.9115 1.15248 10.9261 1.08411 10.9545C1.01574 10.9829 0.953639 11.0245 0.901381 11.0769L0.165444 11.8124C0.113004 11.8647 0.0713953 11.9268 0.0430048 11.9951C0.0146143 12.0635 0 12.1368 0 12.2109C0 12.2849 0.0146143 12.3582 0.0430048 12.4266C0.0713953 12.4949 0.113004 12.557 0.165444 12.6093L2.3906 14.8359C2.50187 14.9417 2.64955 15.0007 2.8031 15.0007C2.95665 15.0007 3.10433 14.9417 3.2156 14.8359L3.95154 14.1004L7.33591 10.7151C7.44096 10.6103 7.50034 10.4682 7.50113 10.3198C7.50192 10.1715 7.44405 10.0288 7.34013 9.92288L6.54419 9.12601ZM2.99997 17.2499C1.75826 17.2499 0.722319 18.2577 0.722319 19.4999C0.722319 20.7421 1.75919 21.7499 2.99997 21.7499C3.59671 21.7499 4.16901 21.5129 4.59096 21.0909C5.01292 20.6689 5.24997 20.0967 5.24997 19.4999C5.24997 18.9032 5.01292 18.3309 4.59096 17.9089C4.16901 17.487 3.59671 17.2499 2.99997 17.2499ZM23.25 17.9999H9.74997C9.55106 17.9999 9.3603 18.0789 9.21964 18.2196C9.07899 18.3602 8.99997 18.551 8.99997 18.7499V20.2499C8.99997 20.4488 9.07899 20.6396 9.21964 20.7802C9.3603 20.9209 9.55106 20.9999 9.74997 20.9999H23.25C23.4489 20.9999 23.6397 20.9209 23.7803 20.7802C23.921 20.6396 24 20.4488 24 20.2499V18.7499C24 18.551 23.921 18.3602 23.7803 18.2196C23.6397 18.0789 23.4489 17.9999 23.25 17.9999ZM23.25 2.99992H9.74997C9.55106 2.99992 9.3603 3.07893 9.21964 3.21959C9.07899 3.36024 8.99997 3.551 8.99997 3.74992V5.24992C8.99997 5.44883 9.07899 5.63959 9.21964 5.78025C9.3603 5.9209 9.55106 5.99992 9.74997 5.99992H23.25C23.4489 5.99992 23.6397 5.9209 23.7803 5.78025C23.921 5.63959 24 5.44883 24 5.24992V3.74992C24 3.551 23.921 3.36024 23.7803 3.21959C23.6397 3.07893 23.4489 2.99992 23.25 2.99992ZM23.25 10.4999H9.74997C9.55106 10.4999 9.3603 10.5789 9.21964 10.7196C9.07899 10.8602 8.99997 11.051 8.99997 11.2499V12.7499C8.99997 12.9488 9.07899 13.1396 9.21964 13.2802C9.3603 13.4209 9.55106 13.4999 9.74997 13.4999H23.25C23.4489 13.4999 23.6397 13.4209 23.7803 13.2802C23.921 13.1396 24 12.9488 24 12.7499V11.2499C24 11.051 23.921 10.8602 23.7803 10.7196C23.6397 10.5789 23.4489 10.4999 23.25 10.4999Z" fill="#0088E7"/>
</svg>
