<svg width="23" height="23" viewBox="0 0 23 23" fill="none" xmlns="http://www.w3.org/2000/svg">
<path d="M21 11C21 5.477 16.523 1 11 1C5.477 1 1 5.477 1 11C1 16.523 5.477 21 11 21" stroke="#0088E7" stroke-width="1.5" stroke-linecap="round" stroke-linejoin="round"/>
<path d="M12 1.0498C12 1.0498 15 4.9998 15 10.9998M10 20.9498C10 20.9498 7 16.9998 7 10.9998C7 4.9998 10 1.0498 10 1.0498M1.63 14.4998H11M1.63 7.4998H20.37M18 16.4998V17.9998H19.5" stroke="#0088E7" stroke-width="1.5" stroke-linecap="round" stroke-linejoin="round"/>
<path d="M18 22C19.0609 22 20.0783 21.5786 20.8284 20.8284C21.5786 20.0783 22 19.0609 22 18C22 16.9391 21.5786 15.9217 20.8284 15.1716C20.0783 14.4214 19.0609 14 18 14C16.9391 14 15.9217 14.4214 15.1716 15.1716C14.4214 15.9217 14 16.9391 14 18C14 19.0609 14.4214 20.0783 15.1716 20.8284C15.9217 21.5786 16.9391 22 18 22Z" stroke="#0088E7" stroke-width="1.5" stroke-linecap="round" stroke-linejoin="round"/>
</svg>
