<svg width="15" height="15" viewBox="0 0 15 15" fill="none" xmlns="http://www.w3.org/2000/svg">
<path d="M1 12.375C1 11.513 1.34241 10.6864 1.9519 10.0769C2.5614 9.46741 3.38805 9.125 4.25 9.125H10.75C11.612 9.125 12.4386 9.46741 13.0481 10.0769C13.6576 10.6864 14 11.513 14 12.375C14 12.806 13.8288 13.2193 13.524 13.524C13.2193 13.8288 12.806 14 12.375 14H2.625C2.19402 14 1.7807 13.8288 1.47595 13.524C1.1712 13.2193 1 12.806 1 12.375Z" stroke="currentColor" stroke-width="1.2" stroke-linejoin="round"/>
<path d="M7.5 5.875C8.84619 5.875 9.9375 4.78369 9.9375 3.4375C9.9375 2.09131 8.84619 1 7.5 1C6.15381 1 5.0625 2.09131 5.0625 3.4375C5.0625 4.78369 6.15381 5.875 7.5 5.875Z" stroke="currentColor" stroke-width="1.2"/>
</svg>
