<svg width="72" height="72" viewBox="0 0 72 72" fill="none" xmlns="http://www.w3.org/2000/svg">
<path d="M36 4.5C44.3543 4.5 52.3665 7.81874 58.2739 13.7261C64.1813 19.6335 67.5 27.6457 67.5 36C67.5 44.3543 64.1813 52.3665 58.2739 58.2739C52.3665 64.1813 44.3543 67.5 36 67.5C27.6457 67.5 19.6335 64.1813 13.7261 58.2739C7.81874 52.3665 4.5 44.3543 4.5 36C4.5 27.6457 7.81874 19.6335 13.7261 13.7261C19.6335 7.81874 27.6457 4.5 36 4.5ZM36 18C35.4287 17.9995 34.8635 18.1181 34.3406 18.3484C33.8178 18.5786 33.3487 18.9154 32.9633 19.3372C32.5779 19.759 32.2848 20.2565 32.1025 20.798C31.9203 21.3395 31.853 21.913 31.905 22.482L33.5475 40.509C33.6112 41.1151 33.897 41.6761 34.3499 42.0839C34.8028 42.4917 35.3906 42.7173 36 42.7173C36.6094 42.7173 37.1972 42.4917 37.6501 42.0839C38.103 41.6761 38.3888 41.1151 38.4525 40.509L40.0905 22.482C40.1424 21.9134 40.0753 21.3403 39.8933 20.7991C39.7114 20.2579 39.4186 19.7606 39.0337 19.3389C38.6488 18.9171 38.1803 18.5803 37.6579 18.3498C37.1356 18.1192 36.5709 18.0001 36 18ZM36 54C36.9548 54 37.8705 53.6207 38.5456 52.9456C39.2207 52.2705 39.6 51.3548 39.6 50.4C39.6 49.4452 39.2207 48.5295 38.5456 47.8544C37.8705 47.1793 36.9548 46.8 36 46.8C35.0452 46.8 34.1295 47.1793 33.4544 47.8544C32.7793 48.5295 32.4 49.4452 32.4 50.4C32.4 51.3548 32.7793 52.2705 33.4544 52.9456C34.1295 53.6207 35.0452 54 36 54Z" fill="#FF1200"/>
</svg>
